<svg xmlns="http://www.w3.org/2000/svg">
    <symbol id="theme" viewBox="0 0 20 20" fill="none" xmlns="http://www.w3.org/2000/svg">
        <path fill-rule="evenodd" clip-rule="evenodd"
            d="M6.57104 2.77C7.5205 2.31977 8.54934 2.06095 9.59882 2.00832C10.6483 1.9557 11.6979 2.1103 12.6876 2.46331C13.6773 2.81631 14.5879 3.3608 15.3672 4.06568C16.1465 4.77057 16.7793 5.62205 17.2295 6.5715C17.6798 7.52096 17.9386 8.5498 17.9912 9.59928C18.0438 10.6488 17.8892 11.6983 17.5362 12.6881C17.1832 13.6778 16.6388 14.5883 15.9339 15.3676C15.229 16.1469 14.3775 16.7798 13.428 17.23C11.5105 18.1392 9.31039 18.2494 7.31162 17.5363C5.31286 16.8233 3.67921 15.3455 2.77004 13.428C1.86088 11.5105 1.75069 9.31035 2.4637 7.31158C3.17671 5.31282 4.65353 3.67917 6.57104 2.77ZM16.857 10C16.8575 11.0889 16.5986 12.1622 16.1019 13.1311C15.6051 14.1 14.8848 14.9367 14.0004 15.572C13.1161 16.2072 12.0932 16.6227 11.0164 16.7841C9.93953 16.9455 8.83976 16.8481 7.80804 16.5C8.8407 15.7598 9.68194 14.7839 10.2619 13.6535C10.842 12.523 11.144 11.2706 11.143 10C11.144 8.72944 10.842 7.47697 10.2619 6.34652C9.68194 5.21607 8.8407 4.24024 7.80804 3.5C8.83976 3.15193 9.93953 3.05455 11.0164 3.21594C12.0932 3.37732 13.1161 3.79282 14.0004 4.42805C14.8848 5.06329 15.6051 5.89999 16.1019 6.86892C16.5986 7.83786 16.8575 8.91116 16.857 10Z"
            fill="currentColor" />
    </symbol>
    <symbol id="telegram" viewBox="0 0 20 20" fill="none" xmlns="http://www.w3.org/2000/svg">
        <path fill-rule="evenodd" clip-rule="evenodd"
            d="M2.68812 9.415C6.47012 7.829 11.0441 5.573 15.0081 4.048C18.6681 2.703 18.6071 3.07 18.0581 6.731C17.6301 9.659 17.1411 12.586 16.6551 15.514C16.4721 16.916 15.7381 17.648 14.2151 16.798L9.45812 13.443C8.78612 12.893 8.96912 12.465 9.51912 11.919L13.9101 7.77C15.0721 6.609 14.5211 6.184 13.1771 7.098L7.13912 11.184C6.28312 11.795 5.37012 11.795 4.39412 11.49L2.32112 10.756C0.976119 10.267 2.01512 9.716 2.68812 9.414V9.415Z"
            fill="currentColor" />
    </symbol>
    <symbol id="phone" viewBox="0 0 20 20" fill="none" xmlns="http://www.w3.org/2000/svg">
        <path fill-rule="evenodd" clip-rule="evenodd"
            d="M6.83898 5.768C6.34891 5.06808 5.85423 4.3714 5.35498 3.678C5.31298 3.62 5.23798 3.505 5.15298 3.5C5.11498 3.498 4.92498 3.51 4.59698 3.758C3.63298 4.488 3.24498 5.602 3.66698 7.242C4.06098 8.772 5.31098 11.015 7.14798 12.852C8.98498 14.689 11.228 15.939 12.758 16.332C14.398 16.755 15.512 16.367 16.242 15.403C16.49 15.075 16.502 14.885 16.5 14.847C16.495 14.762 16.38 14.687 16.322 14.645C15.866 14.313 15.023 13.717 14.232 13.161C13.942 12.957 13.778 12.844 13.652 12.766C13.48 12.66 13.36 12.748 13.223 12.881C13.01 13.088 12.811 13.315 12.57 13.491C12.2672 13.7131 11.906 13.8418 11.531 13.861C10.975 13.889 10.479 13.659 10.063 13.308C8.82694 12.2977 7.69528 11.166 6.68498 9.93C6.33298 9.512 6.10698 9.01 6.13998 8.452C6.16698 7.997 6.34798 7.652 6.51398 7.425C6.68798 7.186 6.91398 6.989 7.11898 6.778C7.24898 6.644 7.34898 6.536 7.23398 6.348C7.10752 6.1515 6.97581 5.95743 6.83898 5.768ZM6.56898 2.795C6.90898 3.263 7.51098 4.116 8.06598 4.905C8.45298 5.457 8.64598 5.732 8.72798 6.023C8.84298 6.433 8.81998 6.839 8.62098 7.256C8.49098 7.528 8.35098 7.668 7.87298 8.146C7.75898 8.259 7.64698 8.37 7.63698 8.539C7.62698 8.713 7.72898 8.837 7.83298 8.963C8.78429 10.1279 9.84957 11.1949 11.013 12.148C11.139 12.251 11.285 12.372 11.456 12.363C11.628 12.355 11.74 12.241 11.855 12.126C12.333 11.648 12.472 11.509 12.744 11.379C13.1291 11.1977 13.5664 11.1597 13.977 11.272C14.267 11.353 14.543 11.547 15.094 11.934C15.884 12.489 16.737 13.091 17.204 13.432C18.231 14.178 18.215 15.282 17.438 16.308C16.258 17.866 14.462 18.32 12.384 17.785C10.548 17.314 8.07798 15.903 6.08698 13.913C4.09698 11.923 2.68698 9.452 2.21398 7.616C1.67998 5.538 2.13398 3.741 3.69198 2.562C4.71798 1.785 5.82298 1.769 6.56898 2.795Z"
            fill="currentColor" />
    </symbol>
    <symbol id="gpb" viewBox="0 0 32 32" fill="none"
        xmlns="http://www.w3.org/2000/svg">
        <circle cx="16" cy="16" r="16" fill="white" />
        <path
            d="M9.42822 10.8653C10.0479 10.6755 10.6045 10.3285 11.1092 9.92191C12.4472 8.84386 14.1486 8.19846 16 8.19846C17.7574 8.19846 19.3763 8.77787 20.6804 9.75804C20.5387 9.84873 20.3703 9.94034 20.172 10.0317C19.129 10.512 17.6707 10.8104 16.187 11.1141L15.8182 11.1897C12.9175 11.7869 10.453 12.3337 8.53762 13.0694C8.26338 13.1747 8.00122 13.2835 7.75027 13.397C6.99999 13.7363 6.48902 14.4509 6.42744 15.272C6.419 15.3845 6.41249 15.4973 6.40792 15.6103C6.39459 15.9404 6.38792 16.1055 6.47155 16.1616C6.48343 16.1696 6.49435 16.1753 6.50772 16.1803C6.60183 16.2162 6.74629 16.105 7.03523 15.8826C7.30155 15.6776 7.61016 15.4821 7.96571 15.2942C9.73882 14.3569 12.4372 13.7235 16.1812 12.9527C16.3144 12.9253 16.4505 12.8976 16.5888 12.8694C18.0128 12.5794 19.6805 12.2397 20.9249 11.6666C21.6129 11.3498 22.2896 10.9115 22.7129 10.2651C23.0042 9.82038 22.845 9.24684 22.4514 8.88947C20.7469 7.34167 18.4835 6.39844 15.9998 6.39844C12.6394 6.39844 9.6823 8.12497 7.96714 10.7393C7.76936 11.0408 7.67047 11.1915 7.72872 11.2885C7.73628 11.301 7.74593 11.3133 7.75636 11.3237C7.83672 11.4032 8.01414 11.3402 8.36897 11.2141C8.71071 11.0927 9.06415 10.9767 9.42822 10.8653Z"
            fill="currentColor" fill-opacity="0.56" />
        <path
            d="M24.6516 11.8333C24.5351 11.5918 24.4769 11.4711 24.4096 11.4457C24.3674 11.4297 24.3348 11.4288 24.2917 11.4424C24.2231 11.4641 24.1458 11.6042 23.9911 11.8845C23.7383 12.3423 23.3041 12.7526 22.6104 13.1354C21.1715 13.9293 18.9231 14.451 15.8209 15.1157C12.8141 15.7601 10.2624 16.3292 8.53766 17.2808C8.31583 17.4032 8.10333 17.5341 7.90201 17.6749C7.11449 18.2255 6.92273 19.2765 7.3381 20.143C7.34138 20.1499 7.34467 20.1567 7.34796 20.1635C7.46435 20.4049 7.52255 20.5255 7.58973 20.551C7.63207 20.567 7.66471 20.5679 7.70787 20.5542C7.77634 20.5325 7.85365 20.3925 8.00827 20.1124C8.26105 19.6545 8.6952 19.2442 9.38897 18.8615C10.8279 18.0676 13.0762 17.5458 16.1783 16.8811C19.1852 16.2368 21.7369 15.6676 23.4617 14.7161C23.6836 14.5936 23.8962 14.4627 24.0976 14.3218C24.8851 13.7712 25.0768 12.7202 24.6614 11.8537C24.6581 11.8469 24.6549 11.8401 24.6516 11.8333Z"
            fill="currentColor" fill-opacity="0.56" />
        <path
            d="M25.592 16.3745C25.6051 16.0424 25.6116 15.8764 25.5277 15.8204C25.5158 15.8125 25.5049 15.8068 25.4914 15.8018C25.3971 15.7661 25.2521 15.8785 24.9621 16.1034C24.6926 16.3124 24.3794 16.5115 24.0175 16.7027C22.2444 17.6399 19.546 18.2734 15.802 19.0442C15.6699 19.0714 15.5349 19.0989 15.3976 19.1268L15.3944 19.1275C13.9704 19.4175 12.3027 19.7572 11.0583 20.3303C10.3703 20.6471 9.69359 21.0854 9.27026 21.7318C8.98405 22.1688 9.13809 22.7326 9.52364 23.0852C11.2309 24.6462 13.5041 25.5984 15.9998 25.5984C19.3634 25.5984 22.3229 23.8686 24.0374 21.2499C24.2349 20.9481 24.3337 20.7972 24.2754 20.7004C24.2678 20.6878 24.2582 20.6755 24.2477 20.6652C24.1673 20.5857 23.9898 20.649 23.6349 20.7755C23.2868 20.8995 22.9265 21.0179 22.5552 21.1316C21.9355 21.3213 21.3789 21.6684 20.8742 22.075C19.5362 23.153 17.8348 23.7984 15.9834 23.7984C14.2259 23.7984 12.607 23.219 11.3029 22.2388C11.4446 22.1481 11.613 22.0565 11.8113 21.9652C12.8543 21.4849 14.3126 21.1864 15.7962 20.8828L16.165 20.8072C19.1519 20.1923 21.6761 19.6307 23.6147 18.8615C23.8362 18.7736 24.0495 18.6833 24.2551 18.5898C25.0035 18.2496 25.5121 17.5353 25.5728 16.7155C25.5811 16.6021 25.5876 16.4884 25.592 16.3745Z"
            fill="currentColor" fill-opacity="0.56" />
    </symbol>
    <symbol id="eye-closed" viewBox="0 0 24 24" fill="none" xmlns="http://www.w3.org/2000/svg">
        <path fill-rule="evenodd" clip-rule="evenodd"
            d="M20.5303 4.53033C20.8232 4.23744 20.8232 3.76256 20.5303 3.46967C20.2374 3.17678 19.7626 3.17678 19.4697 3.46967L3.46967 19.4697C3.17678 19.7626 3.17678 20.2374 3.46967 20.5303C3.76256 20.8232 4.23744 20.8232 4.53033 20.5303L7.37723 17.6834C8.74353 18.3266 10.3172 18.75 12 18.75C14.684 18.75 17.0903 17.6729 18.8206 16.345C19.6874 15.6797 20.4032 14.9376 20.9089 14.2089C21.4006 13.5003 21.75 12.7227 21.75 12C21.75 11.2773 21.4006 10.4997 20.9089 9.79115C20.4032 9.06244 19.6874 8.32028 18.8206 7.65503C18.5585 7.45385 18.2808 7.25842 17.989 7.07163L20.5303 4.53033ZM16.8995 8.16113L15.1287 9.93196C15.5213 10.5248 15.75 11.2357 15.75 12C15.75 14.0711 14.0711 15.75 12 15.75C11.2357 15.75 10.5248 15.5213 9.93196 15.1287L8.51524 16.5454C9.58077 16.9795 10.7621 17.25 12 17.25C14.2865 17.25 16.3802 16.3271 17.9073 15.155C18.6692 14.5703 19.2714 13.9374 19.6766 13.3536C20.0957 12.7497 20.25 12.2773 20.25 12C20.25 11.7227 20.0957 11.2503 19.6766 10.6464C19.2714 10.0626 18.6692 9.42972 17.9073 8.84497C17.5941 8.60461 17.2571 8.37472 16.8995 8.16113ZM11.0299 14.0307C11.3237 14.1713 11.6526 14.25 12 14.25C13.2426 14.25 14.25 13.2426 14.25 12C14.25 11.6526 14.1713 11.3237 14.0307 11.0299L11.0299 14.0307Z"
            fill="currentColor" />
        <path
            d="M12 5.25C13.0323 5.25 14.0236 5.40934 14.9511 5.68101C15.1296 5.73328 15.1827 5.95662 15.0513 6.0881L14.2267 6.91265C14.1648 6.97451 14.0752 6.99928 13.99 6.97967C13.3506 6.83257 12.6839 6.75 12 6.75C9.71345 6.75 7.61978 7.67292 6.09267 8.84497C5.33078 9.42972 4.72857 10.0626 4.32343 10.6464C3.90431 11.2503 3.75 11.7227 3.75 12C3.75 12.2773 3.90431 12.7497 4.32343 13.3536C4.67725 13.8635 5.18138 14.4107 5.81091 14.9307C5.92677 15.0264 5.93781 15.2015 5.83156 15.3078L5.12265 16.0167C5.03234 16.107 4.88823 16.1149 4.79037 16.0329C4.09739 15.4517 3.51902 14.8255 3.0911 14.2089C2.59937 13.5003 2.25 12.7227 2.25 12C2.25 11.2773 2.59937 10.4997 3.0911 9.79115C3.59681 9.06244 4.31262 8.32028 5.17941 7.65503C6.90965 6.32708 9.31598 5.25 12 5.25Z"
            fill="currentColor" />
        <path
            d="M12 8.25C12.1185 8.25 12.2357 8.25549 12.3513 8.26624C12.5482 8.28453 12.6194 8.51991 12.4796 8.6597L11.2674 9.87196C10.6141 10.0968 10.0968 10.6141 9.87196 11.2674L8.6597 12.4796C8.51991 12.6194 8.28453 12.5482 8.26624 12.3513C8.25549 12.2357 8.25 12.1185 8.25 12C8.25 9.92893 9.92893 8.25 12 8.25Z"
            fill="currentColor" />
    </symbol>
    <symbol id="account" viewBox="0 0 24 24" fill="none" xmlns="http://www.w3.org/2000/svg">
        <path fill-rule="evenodd" clip-rule="evenodd"
            d="M12.0001 4.0166C9.77715 4.0166 7.9751 5.81866 7.9751 8.0416C7.9751 10.2645 9.77715 12.0666 12.0001 12.0666C14.223 12.0666 16.0251 10.2645 16.0251 8.0416C16.0251 5.81866 14.223 4.0166 12.0001 4.0166ZM6.4751 8.0416C6.4751 4.99023 8.94872 2.5166 12.0001 2.5166C15.0515 2.5166 17.5251 4.99023 17.5251 8.0416C17.5251 11.093 15.0515 13.5666 12.0001 13.5666C8.94872 13.5666 6.4751 11.093 6.4751 8.0416Z"
            fill="currentColor" />
        <path fill-rule="evenodd" clip-rule="evenodd"
            d="M11.9996 13.5833C10.1687 13.5831 8.3955 14.2243 6.98813 15.3954C5.58112 16.5663 4.6286 18.193 4.29593 19.993C4.29584 19.9934 4.29575 19.9939 4.29566 19.9944L3.98787 21.6998L2.51172 21.4334L2.82032 19.7236L2.82059 19.7221C3.21667 17.5768 4.35174 15.6379 6.02864 14.2425C7.70553 12.847 9.81829 12.083 11.9999 12.0833L12 12.0833C14.1842 12.0838 16.299 12.8503 17.9762 14.2494C19.6535 15.6485 20.787 17.5915 21.1793 19.7402L21.1794 19.741L21.4879 21.45L20.0117 21.7165L19.7037 20.0096C19.7036 20.0093 19.7036 20.0091 19.7035 20.0088C19.3741 18.2058 18.4229 16.5753 17.0154 15.4013C15.6077 14.2271 13.8328 13.5837 11.9997 13.5833"
            fill="currentColor" />
    </symbol>
    <symbol id="left-arrow" viewBox="0 0 20 14" fill="none" xmlns="http://www.w3.org/2000/svg">
        <path
            d="M18.3333 6.16669H3.67832L8.08915 1.75586C8.16874 1.67899 8.23223 1.58703 8.2759 1.48536C8.31958 1.38369 8.34257 1.27434 8.34353 1.16369C8.34449 1.05305 8.3234 0.943312 8.2815 0.840899C8.2396 0.738485 8.17772 0.645442 8.09948 0.567198C8.02124 0.488954 7.92819 0.427076 7.82578 0.385175C7.72337 0.343275 7.61363 0.32219 7.50298 0.323152C7.39233 0.324113 7.28298 0.347102 7.18131 0.390776C7.07964 0.43445 6.98769 0.497935 6.91082 0.577527L1.07748 6.41086C0.921259 6.56713 0.833496 6.77906 0.833496 7.00003C0.833496 7.221 0.921259 7.43292 1.07748 7.58919L6.91082 13.4225C7.06799 13.5743 7.27849 13.6583 7.49699 13.6564C7.71548 13.6545 7.92449 13.5669 8.079 13.4124C8.23351 13.2579 8.32115 13.0489 8.32305 12.8304C8.32494 12.6119 8.24095 12.4014 8.08915 12.2442L3.67832 7.83336H18.3333C18.5543 7.83336 18.7663 7.74556 18.9226 7.58928C19.0789 7.433 19.1667 7.22104 19.1667 7.00003C19.1667 6.77901 19.0789 6.56705 18.9226 6.41077C18.7663 6.25449 18.5543 6.16669 18.3333 6.16669Z"
            fill="currentColor" />
    </symbol>
    <symbol id="refresh" viewBox="0 0 12 14" fill="none" xmlns="http://www.w3.org/2000/svg">
        <path
            d="M5.40301 0.182994C5.46105 0.12494 5.52996 0.0788885 5.6058 0.047469C5.68163 0.0160495 5.76292 -0.00012207 5.84501 -0.00012207C5.9271 -0.00012207 6.00839 0.0160495 6.08423 0.047469C6.16007 0.0788885 6.22897 0.12494 6.28701 0.182994L8.97701 2.87299C9.03506 2.93103 9.08112 2.99994 9.11254 3.07578C9.14396 3.15162 9.16013 3.2329 9.16013 3.31499C9.16013 3.39708 9.14396 3.47837 9.11254 3.55421C9.08112 3.63005 9.03506 3.69896 8.97701 3.75699L6.28701 6.44699C6.2289 6.50504 6.15993 6.55107 6.08403 6.58246C6.00813 6.61385 5.92679 6.62998 5.84466 6.62993C5.76252 6.62988 5.6812 6.61366 5.60534 6.58219C5.52948 6.55071 5.46056 6.5046 5.40251 6.44649C5.34447 6.38838 5.29844 6.31941 5.26705 6.24351C5.23566 6.16761 5.21953 6.08627 5.21957 6.00414C5.21962 5.92201 5.23584 5.84069 5.26732 5.76482C5.29879 5.68896 5.3449 5.62004 5.40301 5.56199L7.02601 3.93999H6.00001C5.12898 3.93999 4.27751 4.19828 3.55328 4.6822C2.82905 5.16612 2.26457 5.85393 1.93125 6.65866C1.59792 7.46338 1.5107 8.34888 1.68063 9.20317C1.85056 10.0575 2.27 10.8422 2.88591 11.4581C3.50182 12.074 4.28654 12.4934 5.14083 12.6634C5.99513 12.8333 6.88062 12.7461 7.68535 12.4128C8.49008 12.0794 9.17788 11.515 9.6618 10.7907C10.1457 10.0665 10.404 9.21502 10.404 8.34399C10.404 8.17823 10.4699 8.01926 10.5871 7.90205C10.7043 7.78484 10.8633 7.71899 11.029 7.71899C11.1948 7.71899 11.3537 7.78484 11.471 7.90205C11.5882 8.01926 11.654 8.17823 11.654 8.34399C11.654 9.46225 11.3224 10.5554 10.7011 11.4852C10.0799 12.415 9.19684 13.1397 8.1637 13.5676C7.13057 13.9955 5.99374 14.1075 4.89697 13.8894C3.8002 13.6712 2.79276 13.1327 2.00203 12.342C1.2113 11.5513 0.672812 10.5438 0.454651 9.44703C0.23649 8.35027 0.348458 7.21344 0.776396 6.1803C1.20433 5.14717 1.92902 4.26413 2.85882 3.64287C3.78861 3.0216 4.88176 2.68999 6.00001 2.68999H7.02601L5.40301 1.06699C5.34496 1.00896 5.2989 0.940049 5.26749 0.86421C5.23607 0.78837 5.21989 0.707084 5.21989 0.624994C5.21989 0.542904 5.23607 0.461618 5.26749 0.385779C5.2989 0.30994 5.34496 0.241033 5.40301 0.182994Z"
            fill="currentColor" />
    </symbol>
</svg>